<svg id="Layer_1" data-name="Layer 1" xmlns="http://www.w3.org/2000/svg" viewBox="0 0 1280 1024"><path d="M1118.08 431.19c-68.75-129.93-210.92-223.71-226.94-167.6-11 38.63 82.56 56.66 136.38 161.21 23.31 45.25 26.58 85.26 25.27 103.62-2.58 36.12-29.36 65.57-65.58 65.57s-73.44-27.37-73.44-65.57c0-48 40.27-65.58 73.44-65.58 33 0 38.43-51.3-11.14-57.06-90.5-10.49-122.64 73.46-157.17 31.22-14.8-18.1-43.51-72.52-84.85-71.79-45.9.82-95.3 87.62-120.87 87.62S585 365 547.59 364.24c-34.79-.67-89.24 88.58-120.49 88.58s-36.3-87.82-69.79-88.58c-41.11-.89-109.18 88.58-134.75 88.58s2.91-88.7-42-88.06c-31.3.44-54.17 76.49-59.85 132.36s-12.23 173.3 35.86 173.3 132.69-199.54 174-187.76c36.66 10.45-20.71 183.7 37.43 187.09 51.52 3 125.2-217.33 165-185C560.42 507 513.1 668 569.7 670.42c50.22 2.12 118.82-218.27 165.22-218.27s66.84 211.05 115.77 218.27c26.29 3.89 36.64-39.09 50.84-39.09s28.84 41.68 96.1 36.24C1058.05 662.69 1073 622 1091 622s5.54 50.14 40.22 48.44c41.8-2 42.19-134.7-13.13-239.23" fill="#eb0045"/><path d="M722.4 598.5c7.31-3.86 4.89-20.83 9-26.69 19.36-27 53.05 16 41.38 75.69-8 41-59.89 10.77-83.76-7.06-20.36-15.2-26.89-44.67-4.29-47.4 21.93-2.67 29.73 9.61 37.64 5.46" fill="#ec1848"/><path d="M127.21 788.19c0 4.31-1.14 7.84-2.54 7.84h-5.11c-1.41 0-2.57-3.53-2.57-7.84v-64.9c0-4.32 2-7.83 4.49-7.83h9c2.47 0 5.26 3.43 6.2 7.64l11.17 49.64c.94 4.2 1.71 7.64 1.7 7.64s.74-3.44 1.66-7.65L162 723.1c.92-4.2 3.68-7.64 6.15-7.64h9c2.47 0 4.49 3.51 4.49 7.83v64.9c0 4.31-1.14 7.84-2.55 7.84h-5.11c-1.41 0-2.56-3.53-2.56-7.84v-62.12s-.82 3.43-1.8 7.62l-12.89 54.72c-1 4.19-3 7.62-4.57 7.62h-5.53c-1.53 0-3.59-3.43-4.58-7.62l-13-54.95c-1-4.19-1.79-7.61-1.78-7.61v7.82m94.8-10.58c1-4.21 3.39-7.63 5.4-7.63h7.34c2 0 4.47 3.42 5.44 7.63l14.94 65.31c1 4.19.44 7.63-1.17 7.63h-5.86c-1.61 0-3.64-3.46-4.5-7.67l-.59-2.93a10 10 0 0 0-9.39-7.67h-5.92a10.09 10.09 0 0 0-9.44 7.66l-.62 2.94c-.88 4.22-2.81 7.67-4.28 7.67h-5.37c-1.47 0-1.89-3.44-.93-7.63m16.3-27.4a6.12 6.12 0 0 0 6.24 7.66H232a6.11 6.11 0 0 0 6.22-7.66l-5.83-28c-.88-4.2-1.59-7.66-1.58-7.66s-.68 3.46-1.56 7.67zm68.86 27.19c0 4.31-1.24 7.84-2.74 7.84H284c-1.52 0-2.76-3.53-2.76-7.84v-64.9c0-4.32 1.23-7.83 2.74-7.83h5.51c1.52 0 2.77 3.51 2.77 7.83v21.45c0 4.31 1.87 4.85 4.16 1.2l14.95-23.85c2.29-3.65 5.52-6.63 7.18-6.63h6.06c1.68 0 1.1 2.93-1.28 6.52L308 745.07a14.43 14.43 0 0 0-.61 13.42L324 789.14c2.05 3.78 2.25 6.89.46 6.89h-6.53c-1.78 0-4.86-3.13-6.84-7l-15.22-29.59c-2-3.83-3.57-7-3.57-7v7.83M358.17 796a7.86 7.86 0 0 1-7.83-7.84v-64.9a7.85 7.85 0 0 1 7.83-7.83h20.43c4.31 0 7.83 1 7.83 2.26v4.52c0 1.26-3.52 2.3-7.83 2.3h-9.41a7.85 7.85 0 0 0-7.83 7.82v9.87a7.86 7.86 0 0 0 7.83 7.83h7.93c4.31 0 7.83 1 7.83 2.25v4.54c0 1.26-3.52 2.29-7.83 2.29h-7.93a7.85 7.85 0 0 0-7.83 7.82v12.16a7.85 7.85 0 0 0 7.83 7.83h10.16c4.3 0 7.82 1 7.82 2.25v4.54c0 1.26-3.52 2.29-7.82 2.29m83.55-72.91c1-4.21 3.39-7.63 5.4-7.63h7.33c2 0 4.47 3.42 5.44 7.63L496 788.4c1 4.19.43 7.63-1.17 7.63H489c-1.62 0-3.65-3.46-4.51-7.67l-.58-2.93a10 10 0 0 0-9.4-7.67h-5.92a10.09 10.09 0 0 0-9.43 7.66l-.62 2.94c-.88 4.22-2.81 7.67-4.29 7.67h-5.36c-1.47 0-1.9-3.44-.93-7.63m16.29-27.4a6.12 6.12 0 0 0 6.24 7.66h2.28A6.11 6.11 0 0 0 479 761l-5.83-28c-.88-4.2-1.58-7.66-1.57-7.66s-.69 3.46-1.57 7.67zm94.83-37.71c0-4.31 1.22-7.83 2.73-7.83h9.82c3.9 0 10.58.4 14.86.91 0 0 8.22 1 12.35 4.68s6.2 9.8 6.2 18.22v23.57c0 4.31-.36 11.34-.8 15.62 0 0-.78 7.62-3.94 11.6s-8.31 6-15.48 6h-23c-1.51 0-2.73-3.52-2.73-7.84m11-9.07c0 4.31 2.52 7.83 5.59 7.83a115 115 0 0 0 13.32-1.16s.32-.05 2.19-2.41 2.8-6.55 2.8-12.56v-23.58c0-4.31-.38-11.33-.84-15.62a7.63 7.63 0 0 0-2.21-3.83q-3.08-3.29-10.89-3.28h-2.16a7.85 7.85 0 0 0-7.83 7.82zm60.58-55.86c0-4.31 1.23-7.83 2.74-7.83h5.51c1.52 0 2.77 3.52 2.77 7.83v64.9c0 4.32-1.23 7.84-2.74 7.84h-5.51c-1.53 0-2.77-3.52-2.77-7.84m40.62 7.81c-1.53 0-2.77-3.53-2.77-7.84v-64.9a7.84 7.84 0 0 1 7.83-7.83h19.51c4.31 0 7.83 1 7.83 2.26v4.52c0 1.26-3.52 2.3-7.83 2.3h-8.49a7.85 7.85 0 0 0-7.83 7.82v9.87a7.86 7.86 0 0 0 7.83 7.83h7.41c4.3 0 7.82 1 7.82 2.25v4.54c0 1.26-3.52 2.29-7.82 2.29h-7.41a7.85 7.85 0 0 0-7.83 7.82v21.23c0 4.31-1.23 7.84-2.74 7.84m53.63 0c-1.52 0-2.76-3.53-2.76-7.84v-64.9a7.84 7.84 0 0 1 7.83-7.83H755c4.3 0 7.83 1 7.83 2.26v4.52c0 1.26-3.53 2.3-7.83 2.3h-8.49a7.85 7.85 0 0 0-7.83 7.82v9.87a7.85 7.85 0 0 0 7.83 7.83h7.4c4.32 0 7.83 1 7.83 2.25v4.54c0 1.26-3.51 2.29-7.83 2.29h-7.4a7.85 7.85 0 0 0-7.83 7.82v21.23c0 4.31-1.24 7.84-2.74 7.84m58.59 0a7.86 7.86 0 0 1-7.83-7.84v-64.9a7.84 7.84 0 0 1 7.83-7.83H815c4.31 0 7.82 1 7.82 2.26v4.52c0 1.26-3.51 2.3-7.82 2.3h-9.41a7.85 7.85 0 0 0-7.83 7.82v9.87a7.85 7.85 0 0 0 7.83 7.83h7.92c4.31 0 7.83 1 7.83 2.25v4.54c0 1.26-3.52 2.29-7.83 2.29h-7.92a7.85 7.85 0 0 0-7.83 7.82v12.16a7.85 7.85 0 0 0 7.83 7.83h10.11c4.31 0 7.83 1 7.83 2.25v4.54c0 1.26-3.52 2.29-7.83 2.29m32.38-72.71c0-4.31 1.24-7.83 2.76-7.83h14.94a135.15 135.15 0 0 1 15.57 1.09 13.49 13.49 0 0 1 7 3.81q4.8 4.92 4.8 15.2c0-.45-.5 2.68-1.11 7a15.13 15.13 0 0 1-4.32 8.18q-3.59 3.31-10.38 4.4c4.86.33 8.25 1.48 10.16 3.42q3.4 3.44 3.58 13.44.1 7.25.68 12.16c.13 1 .47 3.63.77 5.77l.29 1.48a45.88 45.88 0 0 0 1.11 4.57h-8.67c-1.59 0-3.31-2-3.81-4.4l-.25-1.37c-.25-1.36-.42-2.49-.49-3.37s-.41-4.89-.71-8.77l-.07-4.07q-.12-7.82-2.94-11.14t-9.27-3.31h-8.59v28.65c0 4.31-1.25 7.83-2.76 7.83h-5.51c-1.51 0-2.75-3.52-2.75-7.83m11-45.57c0 4.3 2 7.83 4.37 7.83s7.89-.4 12.17-.88c0 0 1.51-.17 3.52-2.29s3-6.1 3-12c0 .43-.46-2.55-1-6.66l-2-1.65q-3.08-2.49-11.26-2.48h-.92a7.85 7.85 0 0 0-7.83 7.83zM925.73 796a7.86 7.86 0 0 1-7.83-7.84v-64.9a7.84 7.84 0 0 1 7.83-7.83h20.43c4.31 0 7.83 1 7.83 2.26v4.52c0 1.26-3.52 2.3-7.83 2.3h-9.41a7.85 7.85 0 0 0-7.83 7.82v9.87a7.85 7.85 0 0 0 7.83 7.83h7.92c4.31 0 7.83 1 7.83 2.25v4.54c0 1.26-3.52 2.29-7.83 2.29h-7.92a7.85 7.85 0 0 0-7.83 7.82v12.16a7.85 7.85 0 0 0 7.83 7.83h10.15c4.31 0 7.83 1 7.83 2.25v4.54c0 1.26-3.52 2.29-7.83 2.29m42.43-7.81c0 4.31-1.18 7.84-2.62 7.84h-5.22c-1.43 0-2.61-3.53-2.61-7.84v-64.9c0-4.32 1.94-7.83 4.32-7.83h8.68c2.4 0 5.36 3.36 6.6 7.49l16.36 54.56c1.23 4.12 2.24 4 2.24-.33v-53.89c0-4.32 1.14-7.83 2.54-7.83h5.11c1.42 0 2.57 3.51 2.57 7.83v64.9c0 4.31-1.94 7.84-4.31 7.84h-8.65c-2.39 0-5.35-3.38-6.58-7.5l-16.19-54.2c-1.23-4.13-2.24-4-2.24.32m102.28 35.16c3 0 5.52.55 5.52 1.2s-.3 4.72-.66 9c0 0-.6 7.27-3.91 11.16s-8.82 5.82-16.51 5.82-13.18-1.8-16.81-5.4-5.45-9.15-5.45-16.64v-28c0-4.31.41-11.34.92-15.62 0 0 .85-7.16 4.41-11s9.36-5.8 17.39-5.8q11.41 0 16.33 5.25 4.41 4.57 4.35 14c0 1.48-.06 3.21-.06 3.88s-2.48 1.2-5.52 1.2-5.5-.54-5.5-1.2-.19-4.72-.43-9c0 0 0-.42-1.37-2.26s-3.91-2.77-7.69-2.77q-6.27 0-9 3.2t-2.77 10.45v28c0 4.31.29 11.34.64 15.64a8.24 8.24 0 0 0 1.7 3.84c1.55 2.13 4.41 3.2 8.56 3.2 3.77 0 6.46-1.23 8.09-3.69s2.37-6.46 2.31-12c0-1.31 2.47-2.4 5.5-2.4m39.5 26.13a7.85 7.85 0 0 1-7.82-7.84v-64.9a7.84 7.84 0 0 1 7.82-7.83h20.44c4.31 0 7.83 1 7.83 2.26v4.52c0 1.26-3.52 2.3-7.83 2.3h-9.41a7.85 7.85 0 0 0-7.83 7.82v9.87a7.85 7.85 0 0 0 7.83 7.83h7.92c4.31 0 7.83 1 7.83 2.25v4.54c0 1.26-3.52 2.29-7.83 2.29h-7.92a7.85 7.85 0 0 0-7.83 7.82v12.16a7.85 7.85 0 0 0 7.83 7.83h10.16c4.3 0 7.82 1 7.82 2.25v4.54c0 1.26-3.52 2.29-7.82 2.29" fill="#fff"/></svg>